<svg width="48" height="48" viewBox="0 0 48 48" fill="none" xmlns="http://www.w3.org/2000/svg">
<g clip-path="url(#clip0_5_128)">
<path d="M22.7422 26.1671C22.7422 31.7372 18.2268 34.2793 12.6566 34.2793C7.08645 34.2793 2.57098 31.7372 2.57098 26.1671C2.57098 20.4528 8.56039 16.4535 11.3081 14.9193C12.1468 14.451 13.1665 14.451 14.0052 14.9193C16.7529 16.4535 22.7422 20.4529 22.7422 26.1671Z" fill="#FFF8E6"/>
<path d="M45.429 26.1671C45.429 31.7372 40.9135 34.2793 35.3434 34.2793C29.7732 34.2793 25.2578 31.7372 25.2578 26.1671C25.2578 20.4528 31.2472 16.4535 33.9949 14.9193C34.8336 14.451 35.8533 14.451 36.692 14.9193C39.4397 16.4535 45.429 20.4529 45.429 26.1671Z" fill="#FFEAB7"/>
<path d="M46.5788 10.2498C47.0178 11.0916 46.6767 12.1298 45.8239 12.5473L18.6321 25.8584C17.9971 26.1693 17.2301 25.9173 16.9032 25.2904C16.5703 24.652 16.818 23.8647 17.4562 23.5319L44.3007 9.53323C45.1276 9.10198 46.1477 9.4228 46.5788 10.2498Z" fill="#7DCE5C"/>
<path d="M34.8056 25.588C34.8056 28.5702 33.5962 30.7433 31.6415 32.1702C20.0076 30.7729 18.1454 18.9234 25.17 13.4015C25.2637 13.4418 25.3546 13.4868 25.4446 13.5365C28.3884 15.1799 34.8056 19.4652 34.8056 25.588Z" fill="#FFF8E6"/>
<path d="M31.6415 32.1702C29.6859 33.598 26.985 34.2796 24 34.2796C18.0318 34.2796 13.1943 31.5552 13.1943 25.588C13.1943 19.4652 19.6115 15.1799 22.5553 13.5365C23.3634 13.0846 24.33 13.0396 25.17 13.4015C20.2762 20.654 23.0634 28.4362 31.6415 32.1702Z" fill="#FFEAB7"/>
<path d="M14.2173 20.3983C13.8213 19.8127 13.9644 19.018 14.5398 18.6073L39.1809 1.01747C39.9536 0.465843 41.0292 0.659531 41.5609 1.44609C42.0833 2.21869 41.8804 3.2685 41.1078 3.79087L16.0272 20.7481C15.4309 21.1513 14.6205 20.9947 14.2173 20.3983Z" fill="#ACE094"/>
<path d="M44.6503 33.9422C43.6697 41.4769 37.2263 47.2969 29.4235 47.2969H25.9022C17.2856 46.3641 14.626 38.9982 17.7197 33.9422H44.6503Z" fill="white"/>
<path d="M25.9022 47.2969H18.5765C10.7737 47.2969 4.3303 41.4769 3.34967 33.9422H17.7197C17.3137 40.2365 19.3978 45.4059 25.9022 47.2969Z" fill="#FFF8E6"/>
<path d="M47.2969 33.6553C47.2969 34.6021 46.529 35.37 45.5822 35.37H19.0003C17.6711 35.37 16.7862 35.1778 16.4759 34.8675C16.1656 34.5571 15.9734 34.1287 15.9734 33.6553C15.9734 32.7084 16.9535 31.9406 19.0003 31.9406H45.5822C46.0556 31.9406 46.484 32.1328 46.7944 32.4431C47.1047 32.7534 47.2969 33.1818 47.2969 33.6553Z" fill="#FFBFC7"/>
<path d="M17.7881 34.8675C18.0984 35.1778 18.5269 35.37 19.0003 35.37H2.41781C1.94438 35.37 1.51594 35.1778 1.20562 34.8675C0.895312 34.5571 0.703125 34.1287 0.703125 33.6553C0.703125 32.7084 1.47094 31.9406 2.41781 31.9406H19.0003C18.0534 31.9406 17.2856 32.7084 17.2856 33.6553C17.2856 34.1287 17.4778 34.5571 17.7881 34.8675Z" fill="#FF8A98"/>
<path d="M11.308 14.9193C8.60287 18.1357 7.22212 21.869 9.93328 22.4827" stroke="black" stroke-width="1.40625" stroke-miterlimit="10" stroke-linecap="round" stroke-linejoin="round"/>
<path d="M42.9445 31.9402C44.4915 30.6136 45.429 28.7047 45.429 26.1672C45.429 21.5629 41.5407 18.0723 38.5926 16.0874" stroke="black" stroke-width="1.40625" stroke-miterlimit="10" stroke-linecap="round" stroke-linejoin="round"/>
<path d="M36.5513 17.0865C36.4805 19.9518 36.9741 22.6871 39.4723 22.1248" stroke="black" stroke-width="1.40625" stroke-miterlimit="10" stroke-linecap="round" stroke-linejoin="round"/>
<path d="M46.5788 10.2498C46.1476 9.42288 45.1277 9.10216 44.3007 9.53332L30.1956 16.8888C30.9514 17.5663 31.6857 18.3213 32.3382 19.149L45.8239 12.5474C46.6768 12.1299 47.0179 11.0917 46.5788 10.2498Z" stroke="black" stroke-width="1.40625" stroke-miterlimit="10" stroke-linecap="round" stroke-linejoin="round"/>
<path d="M25.3675 14.4332C25.106 17.9348 25.3322 21.9526 28.4238 21.2566" stroke="black" stroke-width="1.40625" stroke-miterlimit="10" stroke-linecap="round" stroke-linejoin="round"/>
<path d="M14.2174 20.3984C13.8214 19.8127 13.9644 19.0181 14.5399 18.6074L39.1809 1.01753C39.9537 0.465904 41.0292 0.659592 41.561 1.44615C42.0833 2.21875 41.8805 3.26856 41.1079 3.79094L16.0273 20.7482C15.431 21.1514 14.6206 20.9948 14.2174 20.3984Z" stroke="black" stroke-width="1.40625" stroke-miterlimit="10" stroke-linecap="round" stroke-linejoin="round"/>
<path d="M45.582 31.9402H2.418C1.47094 31.9402 0.703125 32.7079 0.703125 33.6551C0.703125 34.6022 1.47084 35.37 2.418 35.37H45.5821C46.5292 35.37 47.297 34.6022 47.297 33.6551C47.2969 32.7079 46.5292 31.9402 45.582 31.9402Z" stroke="black" stroke-width="1.40625" stroke-miterlimit="10" stroke-linecap="round" stroke-linejoin="round"/>
<path d="M41.4511 41.4875C42.8538 39.7227 43.8768 37.6425 44.3952 35.3699" stroke="black" stroke-width="1.40625" stroke-miterlimit="10" stroke-linecap="round" stroke-linejoin="round"/>
<path d="M3.6048 35.3699C5.16292 42.2 11.2744 47.2968 18.5766 47.2968H29.4235C33.1125 47.2968 36.4973 45.9954 39.145 43.8273" stroke="black" stroke-width="1.40625" stroke-miterlimit="10" stroke-linecap="round" stroke-linejoin="round"/>
<path d="M3.63467 22.0507C2.98086 23.2968 2.57098 24.6733 2.57098 26.1672C2.57098 28.7048 3.50839 30.6137 5.05555 31.9402" stroke="black" stroke-width="1.40625" stroke-miterlimit="10" stroke-linecap="round" stroke-linejoin="round"/>
<path d="M16.9894 16.8589C15.8722 16.0173 14.8022 15.3645 14.0051 14.9194C13.1664 14.4512 12.1467 14.4512 11.308 14.9194C9.84001 15.7391 7.44704 17.2625 5.53613 19.3751" stroke="black" stroke-width="1.40625" stroke-miterlimit="10" stroke-linecap="round" stroke-linejoin="round"/>
<path d="M19.7568 18.2266C19.2195 19.9354 19.5018 21.2825 21.0822 21.6402" stroke="black" stroke-width="1.40625" stroke-miterlimit="10" stroke-linecap="round" stroke-linejoin="round"/>
<path d="M31.9422 31.9403C33.7197 30.5139 34.8061 28.4152 34.8061 25.5878C34.8061 19.8985 29.2651 15.7962 26.1188 13.9253" stroke="black" stroke-width="1.40625" stroke-miterlimit="10" stroke-linecap="round" stroke-linejoin="round"/>
<path d="M14.5698 20.7494C13.7332 22.1951 13.1939 23.8141 13.1939 25.5877C13.1939 28.4151 14.2803 30.5138 16.0578 31.9402" stroke="black" stroke-width="1.40625" stroke-miterlimit="10" stroke-linecap="round" stroke-linejoin="round"/>
<path d="M18.1454 25.5221V26.6471" stroke="black" stroke-width="1.40625" stroke-miterlimit="10" stroke-linecap="round" stroke-linejoin="round"/>
<path d="M29.8546 25.5221V26.6471" stroke="black" stroke-width="1.40625" stroke-miterlimit="10" stroke-linecap="round" stroke-linejoin="round"/>
<path d="M22.4565 26.6137C22.8318 27.0444 23.3839 27.3169 24 27.3169C24.6161 27.3169 25.1682 27.0444 25.5435 26.6137" stroke="black" stroke-width="1.40625" stroke-miterlimit="10" stroke-linecap="round" stroke-linejoin="round"/>
</g>
<defs>
<clipPath id="clip0_5_128">
<rect width="48" height="48" fill="white"/>
</clipPath>
</defs>
</svg>
