<svg width="48" height="48" viewBox="0 0 48 48" fill="none" xmlns="http://www.w3.org/2000/svg">
<g clip-path="url(#clip0_5_171)">
<path d="M45.9871 32.291C45.9852 32.2722 45.9834 32.2535 45.9805 32.2347C45.9777 32.2057 45.974 32.1766 45.9702 32.1475C45.9684 32.1372 45.9665 32.1278 45.9646 32.1185C45.9599 32.0838 45.9543 32.05 45.9468 32.0163C45.9468 32.0144 45.9459 32.0116 45.9459 32.0097C45.8484 31.51 45.6187 31.0582 45.2943 30.6907C44.9887 30.3447 44.9446 29.8347 45.2015 29.4504C45.5015 29.0032 45.6768 28.4641 45.6768 27.8829C45.6768 26.6669 44.9071 25.63 43.8271 25.2335C43.6359 25.1622 43.4746 25.0375 43.3593 24.8791C43.2205 24.6879 43.1474 24.4488 43.1671 24.2013C43.1774 24.0644 43.1793 23.9266 43.1699 23.786C43.078 22.3647 41.9127 21.2219 40.4905 21.1544C40.4015 21.1507 40.3134 21.1507 40.2262 21.1544C39.1321 21.2032 38.0409 20.9519 37.108 20.3782C36.4274 19.96 35.7074 19.5982 34.9555 19.3019C33.3918 18.6841 31.6874 18.3447 29.9052 18.3447H17.8537C15.9749 18.3447 14.1852 18.7216 12.553 19.4032C11.6849 19.765 10.8627 20.215 10.0949 20.7391C9.11149 21.4113 7.92742 21.7404 6.73867 21.6625C6.62524 21.656 6.51086 21.655 6.39555 21.6616C5.06524 21.7347 3.84836 22.9188 3.74149 24.2463C3.74055 24.2622 3.73867 24.2772 3.73867 24.2932C3.71242 24.6888 3.76867 25.0685 3.89055 25.4163C4.04524 25.855 3.8868 26.3332 3.50336 26.5938C3.05336 26.9004 2.69617 27.3344 2.48524 27.8425H2.4843C2.34555 28.1763 2.26774 28.5429 2.26774 28.9263C2.26774 29.5357 2.46086 30.1 2.78992 30.5613C2.88555 30.6954 2.94461 30.8454 2.96899 30.9982C3.01961 31.3019 2.93242 31.6207 2.71399 31.8654C2.62774 31.9619 2.54805 32.065 2.47586 32.1738C2.45617 32.2029 2.43742 32.2329 2.41867 32.2629C2.40555 32.2835 2.39336 32.3041 2.38117 32.3247C2.35961 32.3622 2.33805 32.4007 2.31742 32.44C2.30242 32.47 2.28649 32.501 2.27149 32.5319C2.26867 32.5394 2.26492 32.5479 2.26117 32.5554C2.24336 32.5947 2.22555 32.6341 2.20961 32.6735C2.20024 32.6969 2.18992 32.7204 2.18149 32.7447C2.17305 32.7672 2.16461 32.7897 2.15711 32.8132C2.1468 32.8404 2.13742 32.8675 2.12992 32.8957C2.1168 32.9332 2.10649 32.9716 2.09617 33.01C2.07649 33.0841 2.05961 33.1591 2.04555 33.236C2.01555 33.4 2.00055 33.5688 2.00055 33.7404C2.00055 34.9113 2.71305 35.9154 3.72836 36.3429C4.14274 36.5182 4.37899 36.9503 4.32836 37.3985C4.3068 37.586 4.30399 37.7782 4.32086 37.975C4.44367 39.355 5.57805 40.4557 6.9618 40.5372C7.53274 40.571 8.06899 40.4341 8.52649 40.1744C8.99711 39.9063 9.58399 40.0385 9.89805 40.48C10.4099 41.2 11.2499 41.6697 12.1996 41.6697C12.8905 41.6697 13.5234 41.4213 14.0137 41.0088C14.3934 40.69 14.9484 40.69 15.328 41.0088C15.8184 41.4213 16.4512 41.6697 17.1421 41.6697C17.833 41.6697 18.4649 41.4213 18.9552 41.0088C19.3349 40.69 19.8909 40.69 20.2705 41.0088C20.7609 41.4213 21.3927 41.6697 22.0846 41.6697C22.7746 41.6697 23.4074 41.4213 23.8977 41.0088C24.2784 40.69 24.8324 40.69 25.2121 41.0088C25.7024 41.4213 26.3352 41.6697 27.0262 41.6697C27.7162 41.6697 28.349 41.4213 28.8393 41.0088C29.2199 40.69 29.7749 40.69 30.1546 41.0088C30.6449 41.4213 31.2768 41.6697 31.9687 41.6697C32.6587 41.6697 33.2915 41.4213 33.7818 41.0088C34.1615 40.69 34.7165 40.69 35.0962 41.0088C35.5865 41.4213 36.2193 41.6697 36.9102 41.6697C38.0568 41.6697 39.043 40.9863 39.4855 40.0028C39.6927 39.5435 40.1924 39.2904 40.6799 39.4179C40.9246 39.4807 41.1824 39.5125 41.4477 39.5079C42.9299 39.4788 44.1562 38.2779 44.2124 36.7957C44.2227 36.5435 44.1984 36.2988 44.1459 36.0644C44.0512 35.6444 44.2424 35.2047 44.6137 34.9854C45.4434 34.4932 45.9993 33.5904 45.9993 32.5563C45.9992 32.4672 45.9955 32.3782 45.9871 32.291Z" fill="#FFF8E6"/>
<path d="M16.4361 26.7834C16.4361 23.837 16.9086 21.0012 17.7789 18.3457C15.9275 18.3556 14.1635 18.7308 12.553 19.4032C11.6849 19.7651 10.8627 20.2151 10.0949 20.7392C9.11149 21.4114 7.92742 21.7404 6.73867 21.6626C6.62524 21.656 6.51086 21.6551 6.39555 21.6617C5.06524 21.7348 3.84836 22.9189 3.74149 24.2464C3.74055 24.2623 3.73867 24.2773 3.73867 24.2932C3.71242 24.6889 3.76867 25.0685 3.89055 25.4164C4.04524 25.8551 3.8868 26.3332 3.50336 26.5939C3.05336 26.9004 2.69617 27.3345 2.48524 27.8426H2.4843C2.34555 28.1764 2.26774 28.5429 2.26774 28.9264C2.26774 29.5357 2.46086 30.1001 2.78992 30.5614C2.88555 30.6954 2.94461 30.8454 2.96899 30.9982C3.01961 31.302 2.93242 31.6207 2.71399 31.8654C2.62774 31.962 2.54805 32.0651 2.47586 32.1739C2.45617 32.2029 2.43742 32.2329 2.41867 32.2629C2.40555 32.2835 2.39336 32.3042 2.38117 32.3248C2.35961 32.3623 2.33805 32.4007 2.31742 32.4401C2.30242 32.4701 2.28649 32.501 2.27149 32.532C2.26867 32.5395 2.26492 32.5479 2.26117 32.5554C2.24336 32.5948 2.22555 32.6342 2.20961 32.6735C2.20024 32.697 2.18992 32.7204 2.18149 32.7448C2.17305 32.7673 2.16461 32.7898 2.15711 32.8132C2.1468 32.8404 2.13742 32.8676 2.12992 32.8957C2.1168 32.9332 2.10649 32.9717 2.09617 33.0101C2.07649 33.0842 2.05961 33.1592 2.04555 33.236C2.01555 33.4001 2.00055 33.5689 2.00055 33.7404C2.00055 34.9114 2.71305 35.9154 3.72836 36.3429C4.14274 36.5182 4.37899 36.9504 4.32836 37.3985C4.3068 37.586 4.30399 37.7782 4.32086 37.9751C4.44367 39.3551 5.57805 40.4557 6.9618 40.5373C7.53274 40.571 8.06899 40.4342 8.52649 40.1745C8.99711 39.9064 9.58399 40.0385 9.89805 40.4801C10.4099 41.2001 11.2499 41.6698 12.1996 41.6698C12.8905 41.6698 13.5234 41.4214 14.0137 41.0089C14.3934 40.6901 14.9484 40.6901 15.328 41.0089C15.8184 41.4214 16.4512 41.6698 17.1421 41.6698C17.833 41.6698 18.4649 41.4214 18.9552 41.0089C19.3349 40.6901 19.8909 40.6901 20.2705 41.0089C20.3844 41.1046 20.506 41.191 20.634 41.2681C17.9761 37.0793 16.4361 32.1114 16.4361 26.7834Z" fill="#FFEAB7"/>
<path d="M10.5739 36.0951C9.89144 36.5278 8.98741 36.3252 8.55485 35.6427L7.68813 34.2753C7.25547 33.5928 7.45807 32.6888 8.14057 32.2562C8.82307 31.8236 9.7271 32.0262 10.1597 32.7087L11.0264 34.076C11.459 34.7585 11.2564 35.6625 10.5739 36.0951Z" fill="#F9D171"/>
<path d="M36.283 32.6678C35.8504 31.9853 36.053 31.0812 36.7355 30.6487L38.1028 29.782C38.7853 29.3493 39.6894 29.5519 40.1219 30.2344C40.5546 30.9169 40.352 31.8209 39.6695 32.2535L38.3021 33.1202C37.6197 33.5529 36.7157 33.3503 36.283 32.6678Z" fill="#FCE3A0"/>
<path d="M29.286 22.6642C29.286 22.7146 29.2834 22.766 29.2781 22.8174C29.2675 22.9165 29.2462 23.0157 29.2143 23.1148L28.8 24.3994L28.7177 24.6552C28.469 25.4246 27.6448 25.8468 26.8755 25.5989C26.8002 25.575 26.7294 25.5449 26.6612 25.5104H26.6604C26.0301 25.19 25.7078 24.4508 25.9327 23.7567L26.3372 22.5013L26.4293 22.2162C26.678 21.4469 27.5023 21.0247 28.2716 21.2726C28.8912 21.4726 29.286 22.0463 29.286 22.6642Z" fill="#FCE3A0"/>
<path d="M3.088 32.2416C4.237 32.2416 4.564 31.066 5.39181 30.2691C7.77709 27.9728 7.77803 27.8876 10.7261 25.535C14.2727 22.7048 18.9882 21.1461 24.0039 21.1461C29.0196 21.1461 33.7351 22.7048 37.2817 25.535C40.2298 27.8876 40.8897 28.4916 42.616 30.2691C43.4165 31.0935 43.7708 32.2416 44.9198 32.2416C46.4132 32.2416 47.5343 30.8808 47.2535 29.4141C45.5288 20.404 35.7766 13.5019 24.0039 13.5019C12.2081 13.5019 2.44065 20.4312 0.744247 29.4672C0.473872 30.9073 1.56868 32.2415 3.0339 32.2415H3.088V32.2416Z" fill="#FFBFC7"/>
<path d="M19.7421 13.8097C9.92106 15.2443 2.2314 21.5461 0.744247 29.4673C0.473872 30.9074 1.56868 32.2416 3.0339 32.2416H3.088C4.23709 32.2416 4.564 31.066 5.39181 30.2691C7.77709 27.9728 7.77803 27.8876 10.7261 25.535C12.4986 24.1206 14.5631 23.0237 16.811 22.2802C17.3171 19.2577 18.3227 16.4046 19.7421 13.8097Z" fill="#FF8A98"/>
<path d="M24.5652 12.4066C23.8901 11.0133 22.2465 10.0691 20.5014 10.1072C20.4705 10.1079 20.4395 10.1088 20.4086 10.11C19.0985 10.1453 17.7197 10.6763 16.6925 11.6882C16.4365 11.9404 16.3642 12.3263 16.5116 12.654C17.103 13.969 18.196 14.963 19.4046 15.47C19.433 15.4824 19.4615 15.4945 19.4901 15.5063C21.1031 16.1733 22.977 15.8878 24.1106 14.8332C24.7786 14.2119 24.963 13.2276 24.5652 12.4066Z" fill="#ACE094"/>
<path d="M23.4347 13.4309C24.1098 14.8242 25.7534 15.7685 27.4985 15.7303C27.5294 15.7297 27.5604 15.7287 27.5913 15.7275C28.9014 15.6922 30.2802 15.1612 31.3074 14.1493C31.5634 13.8971 31.6357 13.5112 31.4883 13.1835C30.8969 11.8686 29.8039 10.8745 28.5953 10.3675C28.5669 10.3552 28.5384 10.3431 28.5098 10.3312C26.8968 9.66422 25.0229 9.94969 23.8893 11.0043C23.2213 11.6257 23.0369 12.6099 23.4347 13.4309Z" fill="#ACE094"/>
<path d="M25.157 12.5383C25.7037 11.0898 25.2583 9.2473 24.0301 8.00718C24.0084 7.98524 23.9864 7.9634 23.9642 7.94174C23.0373 7.01511 21.7033 6.37986 20.2624 6.33055C19.9033 6.31827 19.5734 6.53127 19.437 6.86371C18.8895 8.19749 18.9202 9.67461 19.3837 10.9006C19.3943 10.9297 19.4052 10.9587 19.4162 10.9876C20.0418 12.6171 21.5382 13.7806 23.0833 13.8778C23.9937 13.9352 24.8349 13.3918 25.157 12.5383Z" fill="#7DCE5C"/>
<path d="M16.2399 35.3973C17.8213 35.3973 19.1032 34.3764 19.1032 33.1171C19.1032 31.8578 17.8213 30.8369 16.2399 30.8369C14.6585 30.8369 13.3766 31.8578 13.3766 33.1171C13.3766 34.3764 14.6585 35.3973 16.2399 35.3973Z" fill="#FFA1AC"/>
<path d="M31.76 35.3973C33.3413 35.3973 34.6233 34.3764 34.6233 33.1171C34.6233 31.8578 33.3413 30.8369 31.76 30.8369C30.1786 30.8369 28.8967 31.8578 28.8967 33.1171C28.8967 34.3764 30.1786 35.3973 31.76 35.3973Z" fill="#FFA1AC"/>
<path d="M2.4758 32.1738C2.45611 32.2029 2.43736 32.2329 2.41861 32.2629C2.40549 32.2835 2.3933 32.3042 2.38111 32.3248C2.35955 32.3623 2.33799 32.4007 2.31736 32.4401C2.30236 32.4701 2.28643 32.501 2.27143 32.532C2.26861 32.5395 2.26486 32.5479 2.26111 32.5554C2.2433 32.5948 2.22549 32.6342 2.20955 32.6735C2.20018 32.697 2.18986 32.7204 2.18143 32.7448C2.17299 32.7673 2.16455 32.7898 2.15705 32.8132C2.14674 32.8404 2.13736 32.8676 2.12986 32.8957C2.11768 32.9332 2.10643 32.9717 2.09611 33.0101C2.07643 33.0842 2.05955 33.1592 2.04549 33.236C2.01549 33.4001 2.00049 33.5688 2.00049 33.7404C2.00049 34.9113 2.71299 35.9154 3.7283 36.3429C4.14268 36.5182 4.37893 36.9504 4.3283 37.3985C4.30674 37.586 4.30393 37.7782 4.3208 37.9751C4.44361 39.3551 5.57799 40.4557 6.96174 40.5373C7.53268 40.571 8.06893 40.4342 8.52643 40.1745C8.99705 39.9063 9.58393 40.0385 9.89799 40.4801C10.4099 41.2001 11.2499 41.6698 12.1995 41.6698C12.8905 41.6698 13.5233 41.4213 14.0136 41.0088C14.3933 40.6901 14.9483 40.6901 15.328 41.0088C15.8183 41.4213 16.4511 41.6698 17.142 41.6698C17.833 41.6698 18.4649 41.4213 18.9552 41.0088C19.3349 40.6901 19.8908 40.6901 20.2705 41.0088C20.7608 41.4213 21.3927 41.6698 22.0845 41.6698C22.7745 41.6698 23.4074 41.4213 23.8977 41.0088C24.2783 40.6901 24.8324 40.6901 25.212 41.0088C25.7024 41.4213 26.3352 41.6698 27.0261 41.6698C27.7161 41.6698 28.3489 41.4213 28.8392 41.0088C29.2199 40.6901 29.7749 40.6901 30.1545 41.0088C30.6449 41.4213 31.2767 41.6698 31.9686 41.6698C32.6586 41.6698 33.2914 41.4213 33.7817 41.0088C34.1614 40.6901 34.7164 40.6901 35.0961 41.0088C35.5864 41.4213 36.2192 41.6698 36.9102 41.6698C38.0567 41.6698 39.043 40.9863 39.4855 40.0029C39.6927 39.5435 40.1924 39.2904 40.6799 39.4179C40.9245 39.4807 41.1824 39.5126 41.4477 39.5079C42.9299 39.4788 44.1561 38.2779 44.2124 36.7957C44.2227 36.5435 44.1983 36.2988 44.1458 36.0645C44.0511 35.6445 44.2424 35.2048 44.6136 34.9854C45.4433 34.4932 45.9992 33.5904 45.9992 32.5563C45.9992 32.4673 45.9955 32.3782 45.987 32.291C45.9852 32.2723 45.9833 32.2535 45.9805 32.2348C45.9777 32.2057 45.9739 32.1767 45.9702 32.1476C45.9683 32.1373 45.9664 32.1279 45.9645 32.1185C45.9599 32.0838 45.9542 32.0501 45.9467 32.0163C45.9467 32.0145 45.9458 32.0117 45.9458 32.0098" stroke="black" stroke-width="1.40625" stroke-miterlimit="10" stroke-linecap="round" stroke-linejoin="round"/>
<path d="M10.5738 36.0951C9.89132 36.5278 8.98729 36.3252 8.55473 35.6427L7.68801 34.2753C7.25535 33.5928 7.45795 32.6888 8.14045 32.2562C8.82295 31.8236 9.72698 32.0262 10.1595 32.7087L11.0263 34.076C11.4589 34.7585 11.2563 35.6625 10.5738 36.0951Z" stroke="black" stroke-width="1.40625" stroke-miterlimit="10" stroke-linecap="round" stroke-linejoin="round"/>
<path d="M36.283 32.6678C35.8503 31.9853 36.0529 31.0812 36.7354 30.6487L38.1028 29.782C38.7853 29.3493 39.6893 29.5519 40.1219 30.2344C40.5545 30.9169 40.3519 31.8209 39.6694 32.2535L38.3021 33.1202C37.6197 33.5529 36.7156 33.3503 36.283 32.6678Z" stroke="black" stroke-width="1.40625" stroke-miterlimit="10" stroke-linecap="round" stroke-linejoin="round"/>
<path d="M29.2855 22.6638C29.2855 22.7144 29.2837 22.766 29.278 22.8176C29.2677 22.9169 29.2462 23.0154 29.2143 23.1147L28.7999 24.3991L28.7174 24.6551C28.469 25.4247 27.6449 25.8466 26.8752 25.5991C26.8002 25.5747 26.729 25.5447 26.6615 25.5101H26.6605C26.0296 25.1894 25.708 24.4507 25.9321 23.7569L26.3371 22.5016L26.429 22.2166C26.5546 21.8276 26.8284 21.5266 27.1668 21.3569C27.7452 21.4347 28.3162 21.5332 28.8787 21.6532C29.1365 21.9222 29.2855 22.2851 29.2855 22.6638Z" stroke="black" stroke-width="1.40625" stroke-miterlimit="10" stroke-linecap="round" stroke-linejoin="round"/>
<path d="M17.9084 29.7516V30.9222" stroke="black" stroke-width="1.40625" stroke-miterlimit="10" stroke-linecap="round" stroke-linejoin="round"/>
<path d="M30.0912 29.7516V30.9222" stroke="black" stroke-width="1.40625" stroke-miterlimit="10" stroke-linecap="round" stroke-linejoin="round"/>
<path d="M22.3939 30.8873C22.7843 31.3353 23.3587 31.6189 23.9998 31.6189C24.6409 31.6189 25.2153 31.3353 25.6057 30.8873" stroke="black" stroke-width="1.40625" stroke-miterlimit="10" stroke-linecap="round" stroke-linejoin="round"/>
<path d="M7.45355 18.935C10.235 16.7367 13.7005 15.0886 17.5723 14.2122" stroke="black" stroke-width="1.40625" stroke-miterlimit="10" stroke-linecap="round" stroke-linejoin="round"/>
<path d="M35.3466 24.1861C33.405 23.007 31.2137 22.151 28.8786 21.6532C28.3161 21.5332 27.7452 21.4347 27.1667 21.3569C26.1317 21.2172 25.0742 21.146 24.0036 21.146C18.988 21.146 14.2724 22.7051 10.7258 25.5354C7.7783 27.8876 7.77736 27.9729 5.39142 30.2688C4.56361 31.0657 4.23736 32.2413 3.08799 32.2413H3.03361C2.84049 32.2413 2.65393 32.2179 2.4758 32.1738C1.30299 31.8879 0.509863 30.7169 0.744238 29.4672C1.31555 26.4231 2.80327 23.618 4.97593 21.2364" stroke="black" stroke-width="1.40625" stroke-miterlimit="10" stroke-linecap="round" stroke-linejoin="round"/>
<path d="M31.0743 14.3651C39.5071 16.4829 45.8896 22.2897 47.2537 29.4138C47.2827 29.5666 47.2968 29.7176 47.2968 29.8666C47.2968 30.7938 46.753 31.6226 45.9458 32.0097C45.6374 32.1579 45.2905 32.2413 44.9202 32.2413C43.7708 32.2413 43.4165 31.0938 42.6158 30.2688C41.044 28.65 40.3563 28.0047 38.0189 26.1257" stroke="black" stroke-width="1.40625" stroke-miterlimit="10" stroke-linecap="round" stroke-linejoin="round"/>
<path d="M24.3309 14.5947C24.2643 14.6782 24.1912 14.7578 24.1106 14.8328C22.9771 15.8875 21.1031 16.1735 19.4906 15.506C19.4615 15.4947 19.4334 15.4825 19.4043 15.4703C18.7368 15.19 18.104 14.7616 17.5724 14.2122C17.1412 13.7669 16.7765 13.2428 16.5121 12.6541C16.364 12.326 16.4362 11.9407 16.6921 11.6885C17.4037 10.9872 18.2831 10.5175 19.1915 10.2832C19.244 10.495 19.3077 10.7013 19.3837 10.901C19.394 10.93 19.4052 10.9591 19.4165 10.9872C19.8731 12.1778 20.7946 13.1191 21.8596 13.5785" stroke="black" stroke-width="1.40625" stroke-miterlimit="10" stroke-linecap="round" stroke-linejoin="round"/>
<path d="M25.2609 10.2025C26.265 9.86598 27.4443 9.89035 28.5093 10.331C28.5384 10.3432 28.5665 10.3554 28.5956 10.3675C29.804 10.8747 30.8971 11.8685 31.4878 13.1838C31.6359 13.511 31.5637 13.8972 31.3078 14.1494C31.2318 14.2244 31.154 14.2957 31.0743 14.365C30.0768 15.2369 28.8046 15.6954 27.5915 15.7272C27.5606 15.7291 27.5296 15.73 27.4987 15.73C26.3015 15.7563 25.1521 15.3204 24.3309 14.5947C24.0731 14.3669 23.8481 14.111 23.6634 13.8316" stroke="black" stroke-width="1.40625" stroke-miterlimit="10" stroke-linecap="round" stroke-linejoin="round"/>
<path d="M19.1915 10.2832C18.9252 9.1966 18.9787 7.97973 19.4371 6.8641C19.5731 6.53129 19.9031 6.31848 20.2621 6.33067C21.7031 6.38035 23.0371 7.01504 23.9643 7.94223C23.9868 7.96379 24.0084 7.98535 24.0299 8.00692C24.6459 8.62942 25.0649 9.40285 25.2609 10.2025C25.4549 10.9966 25.4296 11.8169 25.1568 12.5388C24.6249 13.9252 23.0979 14.1547 21.8596 13.5785" stroke="black" stroke-width="1.40625" stroke-miterlimit="10" stroke-linecap="round" stroke-linejoin="round"/>
</g>
<defs>
<clipPath id="clip0_5_171">
<rect width="48" height="48" fill="white"/>
</clipPath>
</defs>
</svg>
