<svg width="48" height="48" viewBox="0 0 48 48" fill="none" xmlns="http://www.w3.org/2000/svg">
<g clip-path="url(#clip0_6_255)">
<path d="M36.5299 29.4287L35.603 30.3552C35.0969 30.8613 34.2814 30.8782 33.7548 30.3933L10.2224 8.72352C9.6643 8.20973 9.64636 7.33412 10.1829 6.79762L12.9719 4.00856C13.5084 3.47169 14.384 3.49 14.8978 4.04811L36.5676 27.5805C37.0528 28.1071 37.036 28.9223 36.5299 29.4287Z" fill="#D2996F"/>
<path d="M16.5026 5.79054L14.8982 4.04811C14.384 3.49 13.5088 3.47169 12.9719 4.00856L10.1829 6.79762C9.64637 7.33412 9.66432 8.20973 10.2228 8.72352L17.0852 15.0432C16.3015 12.2578 16.1041 8.63856 16.5026 5.79054Z" fill="#C47B46"/>
<path d="M18.6189 11.9938C16.9164 10.9538 14.3741 10.8457 12.8599 11.1522L14.187 12.3743C15.3966 12.3344 16.9087 12.5486 17.9073 13.1587C18.8306 13.7223 19.3949 14.4115 19.585 15.2066C19.7249 15.7932 19.6663 16.4561 19.4136 17.187L20.4902 18.1787C21.0084 16.9893 21.1505 15.887 20.9125 14.8898C20.6353 13.7282 19.8636 12.7537 18.6189 11.9938Z" fill="#C47B46"/>
<path d="M31.9006 22.5121C29.7319 22.3129 28.0942 21.6709 27.0176 20.5935C25.5945 19.1689 25.274 17.1398 25.2359 15.2743L23.885 13.8073C23.8125 16.1404 23.8583 19.3623 26.0519 21.5581C27.5987 23.1061 30.0066 23.9062 33.2182 23.9429L31.9006 22.5121Z" fill="#C47B46"/>
<path d="M21.5629 47.2969C14.5151 47.2969 8.80188 41.5836 8.80188 34.5359C8.80188 27.4882 14.5148 21.7749 21.5629 21.7749H28.9244V47.2969H21.5629Z" fill="#4E5660"/>
<path d="M41.6854 34.5359C41.6854 41.5836 35.9722 47.2969 28.9244 47.2969C21.8767 47.2969 16.1635 41.5836 16.1635 34.5359C16.1635 27.4882 21.8767 21.7749 28.9244 21.7749C35.9722 21.7749 41.6854 27.4882 41.6854 34.5359Z" fill="#FCF2D0"/>
<path d="M35.2672 45.6112C24.2205 42.657 22.4323 29.4565 25.5813 22.2184C20.1555 23.6876 16.1635 28.645 16.1635 34.5359C16.1635 41.5836 21.8767 47.2969 28.9244 47.2969C31.2334 47.2969 33.3988 46.6838 35.2672 45.6112Z" fill="#F2D98D"/>
<path d="M35.5668 34.5359C35.5668 38.2042 32.5928 41.1782 28.9244 41.1782C25.2561 41.1782 22.2821 38.2042 22.2821 34.5359C22.2821 30.8676 25.2561 27.8936 28.9244 27.8936C32.5928 27.8936 35.5668 30.8676 35.5668 34.5359Z" fill="#EFD176"/>
<path d="M26.5441 28.3348C30.3962 32.9868 29.6609 37.407 27.5951 41.0449C24.5636 40.429 22.2821 37.749 22.2821 34.5359C22.2821 31.7065 24.052 29.2921 26.5441 28.3348Z" fill="#89D47F"/>
<path d="M24.1967 29.8737C23.0134 31.0723 22.2821 32.718 22.2821 34.5359C22.2821 37.749 24.5636 40.429 27.5951 41.0449C27.6573 40.9351 27.7185 40.8245 27.7782 40.7135C25.3711 37.6348 24.2728 33.6625 24.1967 29.8737Z" fill="#5EC783"/>
<path d="M25.4139 40.1741C26.7393 34.3707 32.4236 33.3245 35.5415 33.9741C35.5569 34.1594 35.5668 34.3465 35.5668 34.5359C35.5668 38.2042 32.5928 41.1782 28.9244 41.1782C27.6354 41.1782 26.4327 40.8098 25.4139 40.1741Z" fill="#E3748E"/>
<path d="M26.1489 38.1233C25.8391 38.7294 25.5883 39.4102 25.4139 40.1741C26.2167 40.6747 27.1337 41.0087 28.1169 41.1284C27.338 40.2056 26.6847 39.1937 26.1489 38.1233Z" fill="#DE5C6E"/>
<path d="M35.3079 35.8634C34.2012 35.7942 32.5338 35.8956 30.8698 36.7705C29.2357 37.6293 28.0397 39.0048 27.3149 40.8582C27.2999 40.8963 27.2897 40.9343 27.282 40.9728C27.7251 41.0859 28.1865 41.1541 28.6604 41.1727C30.2168 37.4634 33.6628 37.1774 35.0021 37.2162C35.1888 36.7929 35.3342 36.3468 35.4298 35.8828C35.3903 35.8729 35.35 35.866 35.3079 35.8634Z" fill="#DE5C6E"/>
<path d="M25.589 26.9905C25.589 26.1324 24.7159 25.437 23.6385 25.437C22.5615 25.437 21.6885 26.1324 21.6885 26.9905C21.6885 27.8481 22.5615 28.5436 23.6385 28.5436C24.7159 28.5436 25.589 27.8481 25.589 26.9905Z" fill="#EDA1AB"/>
<path d="M36.1608 26.9905C36.1608 26.1324 35.2874 25.437 34.2103 25.437C33.1329 25.437 32.2599 26.1324 32.2599 26.9905C32.2599 27.8481 33.1329 28.5436 34.2103 28.5436C35.2874 28.5436 36.1608 27.8481 36.1608 26.9905Z" fill="#EDA1AB"/>
<path d="M19.6501 31.4407C19.4703 31.4407 19.2905 31.3718 19.1532 31.2345L18.821 30.9027C18.5464 30.6281 18.5464 30.1827 18.821 29.9081C19.0957 29.6338 19.541 29.6338 19.8153 29.9081L20.1475 30.2402C20.4221 30.5149 20.4221 30.9602 20.1475 31.2345C20.0101 31.3718 19.8303 31.4407 19.6501 31.4407Z" fill="#FCF2D0"/>
<path d="M18.8631 37.5117C18.683 37.5117 18.5032 37.4432 18.3658 37.3059C18.0912 37.0312 18.0915 36.5859 18.3658 36.3116L18.7101 35.9678C18.9847 35.6931 19.4297 35.6931 19.7043 35.9678C19.979 36.2424 19.9786 36.6877 19.7043 36.962L19.3605 37.3059C19.2231 37.4432 19.043 37.5117 18.8631 37.5117Z" fill="#FCF2D0"/>
<path d="M24.0616 43.6069C23.8817 43.6069 23.7016 43.5385 23.5642 43.4011C23.2899 43.1265 23.2899 42.6812 23.5642 42.4069L23.9912 41.9799C24.2659 41.7052 24.7112 41.7052 24.9855 41.9799C25.2602 42.2545 25.2602 42.6998 24.9855 42.9741L24.5589 43.4011C24.4215 43.5381 24.2414 43.6069 24.0616 43.6069Z" fill="#FCF2D0"/>
<path d="M35.7316 43.3934H35.402C35.0138 43.3934 34.6989 43.0789 34.6989 42.6903C34.6989 42.3021 35.0138 41.9872 35.402 41.9872H35.7316C36.1198 41.9872 36.4347 42.3021 36.4347 42.6903C36.4347 43.0789 36.1198 43.3934 35.7316 43.3934Z" fill="#F2D98D"/>
<path d="M38.3387 35.0453C38.1588 35.0453 37.9787 34.9768 37.8413 34.8395C37.567 34.5648 37.567 34.1195 37.8413 33.8452L38.2764 33.4102C38.5511 33.1355 38.996 33.1355 39.2707 33.4102C39.5453 33.6848 39.5453 34.1301 39.2707 34.4044L38.836 34.8395C38.6986 34.9768 38.5185 35.0453 38.3387 35.0453Z" fill="#F2D98D"/>
<path d="M10.2905 35.3357H8.98021C8.26427 35.3357 7.67577 34.771 7.64611 34.0558L6.32921 2.09326C6.29808 1.33484 6.90416 0.703125 7.66332 0.703125H11.6074C12.3666 0.703125 12.9726 1.33484 12.9415 2.09326L11.6246 34.0558C11.595 34.771 11.0065 35.3357 10.2905 35.3357Z" fill="#D2996F"/>
<path d="M7.36194 27.1523L7.42822 28.7615C8.05078 28.3949 8.78943 27.8167 9.39258 26.9264C10.3495 25.5143 10.6571 23.7814 10.3077 21.7753C9.98621 19.9285 9.03589 17.7184 8.11707 15.5812C7.63147 14.4521 7.13965 13.3077 6.74707 12.2307L6.91187 16.2345C7.78418 18.2637 8.67407 20.3514 8.96301 22.0096C9.44458 24.7738 8.37854 26.3254 7.36194 27.1523Z" fill="#C47B46"/>
<path d="M12.4439 14.1738C11.5401 11.9861 10.9728 9.25818 10.8428 7.83289C10.5667 4.7937 11.7246 2.96301 12.9397 2.13757L12.9416 2.09326C12.9621 1.59668 12.7083 1.15576 12.3183 0.909668C11.6701 1.31616 11.0834 1.89148 10.6201 2.59351C9.6863 4.00928 9.29336 5.86414 9.48342 7.95667C9.83059 11.7726 11.2167 15.1436 12.3336 16.8527L12.4439 14.1738Z" fill="#C47B46"/>
<path d="M33.7767 25.441V24.7522C33.7767 24.364 33.4618 24.0491 33.0736 24.0491C32.6854 24.0491 32.3705 24.364 32.3705 24.7522V25.441C32.3705 25.8292 32.6854 26.1442 33.0736 26.1442C33.4618 26.1442 33.7767 25.8292 33.7767 25.441ZM28.9245 26.673C29.547 26.673 30.1388 26.4034 30.5486 25.9332C30.8035 25.6406 30.7731 25.1964 30.4801 24.9412C30.1875 24.6863 29.7437 24.7167 29.4884 25.0093C29.3456 25.173 29.1402 25.2667 28.9245 25.2667C28.7084 25.2667 28.5029 25.173 28.3609 25.0096C28.1056 24.7167 27.6614 24.6863 27.3688 24.9412C27.0758 25.1964 27.0454 25.6406 27.3003 25.9332C27.7101 26.4034 28.3019 26.673 28.9245 26.673ZM31.8201 21.3864L15.4153 3.57166C15.0359 3.15967 14.5181 2.92639 13.9578 2.91467C13.8402 2.91211 13.7245 2.92163 13.6106 2.93848L13.6439 2.12219C13.667 1.56226 13.4663 1.03125 13.0781 0.626953C12.6903 0.222656 12.1681 0 11.6074 0H7.66335C7.10304 0 6.58083 0.222656 6.19264 0.626953C5.80483 1.03125 5.60378 1.56226 5.62685 2.12219L6.7936 30.4409C6.80971 30.8291 7.1371 31.1305 7.52492 31.1144C7.9131 31.0986 8.21449 30.7709 8.19875 30.3831L7.032 2.06433C7.02467 1.89038 7.08693 1.72595 7.20741 1.60071C7.32753 1.4751 7.4894 1.40625 7.66335 1.40625H11.6074C11.7814 1.40625 11.9433 1.4751 12.0634 1.60071C12.1839 1.72595 12.2461 1.89038 12.2392 2.06433L10.9223 34.0269C10.908 34.3663 10.6308 34.6326 10.2905 34.6326H8.98024C8.96633 34.6326 8.95278 34.6315 8.93923 34.6307C8.92897 34.63 8.91908 34.6289 8.90736 34.6278C8.90553 34.6274 8.9037 34.6274 8.90187 34.6274C8.59865 34.5901 8.36171 34.34 8.34889 34.0269L8.33424 33.6705C8.3185 33.2827 7.99184 32.9813 7.60292 32.9967C7.21474 33.0128 6.91298 33.3402 6.92909 33.7284L6.94374 34.0847C6.97707 34.8911 7.47072 35.5675 8.16579 35.8693C8.83888 42.7112 14.6287 48 21.5629 48H28.9245C32.8854 48 36.6284 46.2664 39.1941 43.2437C39.4453 42.9478 39.4091 42.5039 39.1128 42.2527C38.8169 42.0015 38.3731 42.0377 38.1218 42.3336C35.8242 45.041 32.4719 46.5938 28.9245 46.5938C22.2759 46.5938 16.8666 41.1848 16.8666 34.5359C16.8666 27.8873 22.2755 22.478 28.9245 22.478C35.573 22.478 40.9823 27.8873 40.9823 34.5359C40.9823 36.3534 40.5883 38.0995 39.8112 39.7262C39.6438 40.0767 39.7921 40.4967 40.1426 40.6637C40.4931 40.8311 40.9127 40.6827 41.0801 40.3326C41.9484 38.5148 42.3886 36.5647 42.3886 34.5359C42.3886 28.1056 37.8571 22.7146 31.8201 21.3864ZM13.2191 12.4387L22.5941 21.0718H21.5629C18.2959 21.0718 15.163 22.2594 12.7273 24.3779L13.2191 12.4387ZM15.4603 34.5359C15.4603 39.8108 18.5101 44.3862 22.9387 46.5938H21.5629C15.4574 46.5938 10.3422 42.0157 9.59877 36.0388H10.2905C11.3873 36.0388 12.282 35.1804 12.327 34.0847L12.6427 26.4243C14.9275 23.9136 18.1641 22.478 21.5629 22.478H22.9387C18.5101 24.6855 15.4603 29.261 15.4603 34.5359ZM28.9245 21.0718H24.6702L13.2949 10.597L13.5487 4.43921C13.6586 4.36011 13.7901 4.31873 13.9289 4.32056C14.1028 4.32422 14.2632 4.39636 14.3808 4.52417L29.636 21.0908C29.4005 21.0784 29.1632 21.0718 28.9245 21.0718ZM25.4784 25.441V24.7522C25.4784 24.364 25.1635 24.0491 24.7753 24.0491C24.3871 24.0491 24.0722 24.364 24.0722 24.7522V25.441C24.0722 25.8292 24.3871 26.1442 24.7753 26.1442C25.1638 26.1442 25.4784 25.8292 25.4784 25.441ZM21.579 34.5359C21.579 37.1378 22.9402 39.4266 24.9866 40.7318C25.017 40.7552 25.0496 40.7758 25.084 40.7941C26.202 41.4829 27.5175 41.8813 28.9245 41.8813C32.9747 41.8813 36.2699 38.5862 36.2699 34.5359C36.2699 34.3275 36.2589 34.1217 36.2417 33.9174C36.2413 33.9122 36.2413 33.9067 36.2406 33.9016C35.9176 30.1472 32.7609 27.1904 28.9245 27.1904C28.0093 27.1904 27.1333 27.36 26.3247 27.6672C26.2998 27.6753 26.2753 27.6852 26.2511 27.6965C23.5192 28.7681 21.579 31.4286 21.579 34.5359ZM28.9245 40.4751C27.9551 40.4751 27.0399 40.24 26.2306 39.8262C26.9934 37.2096 28.7322 35.9194 30.0985 35.2932C31.7725 34.526 33.5665 34.4106 34.8626 34.574C34.8421 37.8314 32.1867 40.4751 28.9245 40.4751ZM28.9245 28.5967C31.7186 28.5967 34.0672 30.5369 34.6967 33.1406C33.1073 32.9938 31.3923 33.2432 29.8931 33.8511C29.6437 32.0896 28.9201 30.3695 27.7288 28.7175C28.1151 28.6384 28.515 28.5967 28.9245 28.5967ZM26.3299 29.1947C27.6548 30.9166 28.4022 32.7059 28.556 34.5256C27.2161 35.3492 25.7926 36.724 25.0163 39.0026C23.7726 37.9131 22.9852 36.3153 22.9852 34.5359C22.9852 32.1907 24.3519 30.1593 26.3299 29.1947Z" fill="black"/>
</g>
<defs>
<clipPath id="clip0_6_255">
<rect width="48" height="48" fill="white"/>
</clipPath>
</defs>
</svg>
