<svg width="139" height="28" viewBox="0 0 139 28" fill="none" xmlns="http://www.w3.org/2000/svg">
<path d="M6.41972 24.6945V20.8056H5.69056C5.01 20.8056 4.43477 20.5706 3.96486 20.1007C3.49495 19.6308 3.26 19.0556 3.26 18.375C3.26 17.6945 3.49495 17.1192 3.96486 16.6493C4.43477 16.1794 5.01 15.9445 5.69056 15.9445H6.41972V14.9722H3.26V10.1111H6.41972V9.1389H5.69056C5.01 9.1389 4.43477 8.90395 3.96486 8.43404C3.49495 7.96413 3.26 7.3889 3.26 6.70835C3.26 6.02779 3.49495 5.45256 3.96486 4.98265C4.43477 4.51274 5.01 4.27779 5.69056 4.27779H6.41972V3.30557H7.87806V4.27779H8.60722C9.28778 4.27779 9.86301 4.51274 10.3329 4.98265C10.8028 5.45256 11.0378 6.02779 11.0378 6.70835C11.0378 7.3889 10.8028 7.96413 10.3329 8.43404C9.86301 8.90395 9.28778 9.1389 8.60722 9.1389H7.87806V10.1111H11.0378V14.9722H7.87806V15.9445H8.60722C9.28778 15.9445 9.86301 16.1794 10.3329 16.6493C10.8028 17.1192 11.0378 17.6945 11.0378 18.375C11.0378 19.0556 10.8028 19.6308 10.3329 20.1007C9.86301 20.5706 9.28778 20.8056 8.60722 20.8056H7.87806V24.6945H6.41972ZM16.1419 24.6945V20.8056H15.4128C14.7322 20.8056 14.157 20.5706 13.6871 20.1007C13.2172 19.6308 12.9822 19.0556 12.9822 18.375C12.9822 17.6945 13.2172 17.1192 13.6871 16.6493C14.157 16.1794 14.7322 15.9445 15.4128 15.9445H16.1419V14.9722H12.9822V10.1111H16.1419V9.1389H15.4128C14.7322 9.1389 14.157 8.90395 13.6871 8.43404C13.2172 7.96413 12.9822 7.3889 12.9822 6.70835C12.9822 6.02779 13.2172 5.45256 13.6871 4.98265C14.157 4.51274 14.7322 4.27779 15.4128 4.27779H16.1419V3.30557H17.6003V4.27779H18.3294C19.01 4.27779 19.5852 4.51274 20.0551 4.98265C20.525 5.45256 20.76 6.02779 20.76 6.70835C20.76 7.3889 20.525 7.96413 20.0551 8.43404C19.5852 8.90395 19.01 9.1389 18.3294 9.1389H17.6003V10.1111H20.76V14.9722H17.6003V15.9445H18.3294C19.01 15.9445 19.5852 16.1794 20.0551 16.6493C20.525 17.1192 20.76 17.6945 20.76 18.375C20.76 19.0556 20.525 19.6308 20.0551 20.1007C19.5852 20.5706 19.01 20.8056 18.3294 20.8056H17.6003V24.6945H16.1419ZM5.69056 7.19446H8.60722C8.73685 7.19446 8.85028 7.14585 8.9475 7.04862C9.04472 6.9514 9.09333 6.83798 9.09333 6.70835C9.09333 6.57872 9.04472 6.46529 8.9475 6.36807C8.85028 6.27085 8.73685 6.22223 8.60722 6.22223H5.69056C5.56093 6.22223 5.4475 6.27085 5.35028 6.36807C5.25306 6.46529 5.20444 6.57872 5.20444 6.70835C5.20444 6.83798 5.25306 6.9514 5.35028 7.04862C5.4475 7.14585 5.56093 7.19446 5.69056 7.19446ZM15.4128 7.19446H18.3294C18.4591 7.19446 18.5725 7.14585 18.6697 7.04862C18.7669 6.9514 18.8156 6.83798 18.8156 6.70835C18.8156 6.57872 18.7669 6.46529 18.6697 6.36807C18.5725 6.27085 18.4591 6.22223 18.3294 6.22223H15.4128C15.2831 6.22223 15.1697 6.27085 15.0725 6.36807C14.9753 6.46529 14.9267 6.57872 14.9267 6.70835C14.9267 6.83798 14.9753 6.9514 15.0725 7.04862C15.1697 7.14585 15.2831 7.19446 15.4128 7.19446ZM5.20444 13.0278H9.09333V12.0556H5.20444V13.0278ZM14.9267 13.0278H18.8156V12.0556H14.9267V13.0278ZM5.69056 18.8611H8.60722C8.73685 18.8611 8.85028 18.8125 8.9475 18.7153C9.04472 18.6181 9.09333 18.5046 9.09333 18.375C9.09333 18.2454 9.04472 18.132 8.9475 18.0347C8.85028 17.9375 8.73685 17.8889 8.60722 17.8889H5.69056C5.56093 17.8889 5.4475 17.9375 5.35028 18.0347C5.25306 18.132 5.20444 18.2454 5.20444 18.375C5.20444 18.5046 5.25306 18.6181 5.35028 18.7153C5.4475 18.8125 5.56093 18.8611 5.69056 18.8611ZM15.4128 18.8611H18.3294C18.4591 18.8611 18.5725 18.8125 18.6697 18.7153C18.7669 18.6181 18.8156 18.5046 18.8156 18.375C18.8156 18.2454 18.7669 18.132 18.6697 18.0347C18.5725 17.9375 18.4591 17.8889 18.3294 17.8889H15.4128C15.2831 17.8889 15.1697 17.9375 15.0725 18.0347C14.9753 18.132 14.9267 18.2454 14.9267 18.375C14.9267 18.5046 14.9753 18.6181 15.0725 18.7153C15.1697 18.8125 15.2831 18.8611 15.4128 18.8611Z" fill="#1F2937"/>
</svg>
