<svg width="139" height="28" viewBox="0 0 139 28" fill="none" xmlns="http://www.w3.org/2000/svg">
<path d="M10.0656 21.7778H13.9544V20.7083L15.1697 20.2222C16.223 19.8009 17.1182 19.2135 17.8555 18.4601C18.5928 17.7066 19.1234 16.8681 19.4475 15.9445H4.5725C4.89658 16.8681 5.4232 17.7066 6.15236 18.4601C6.88153 19.2135 7.78084 19.8009 8.85028 20.2222L10.0656 20.7083V21.7778ZM8.12111 23.7222V22.0208C6.38732 21.3403 4.98165 20.287 3.9041 18.8611C2.82655 17.4352 2.28778 15.8148 2.28778 14H4.23223V6.22223L21.7322 4.27778V5.73612L10.5517 7.00001V8.65278H21.7322V10.1111H10.5517V14H21.7322C21.7322 15.8148 21.1935 17.4352 20.1159 18.8611C19.0384 20.287 17.6327 21.3403 15.8989 22.0208V23.7222H8.12111ZM8.12111 8.65278H9.09334V7.14584L8.12111 7.26737V8.65278ZM5.69056 8.65278H6.66278V7.43751L5.69056 7.53473V8.65278ZM8.12111 14H9.09334V10.1111H8.12111V14ZM5.69056 14H6.66278V10.1111H5.69056V14Z" fill="#1F2937"/>
</svg>
