<svg width="139" height="28" viewBox="0 0 139 28" fill="none" xmlns="http://www.w3.org/2000/svg">
<path d="M8.12111 23.7222V22.0208C6.41972 21.3403 5.02215 20.287 3.9284 18.8611C2.83465 17.4352 2.28778 15.8148 2.28778 14C2.28778 12.6551 2.54299 11.3912 3.0534 10.2083C3.56382 9.02547 4.25653 7.99653 5.13153 7.12153C6.00653 6.24653 7.03546 5.55383 8.21833 5.04341C9.4012 4.53299 10.6651 4.27778 12.01 4.27778C13.3549 4.27778 14.6188 4.53299 15.8017 5.04341C16.9845 5.55383 18.0135 6.24653 18.8885 7.12153C19.7635 7.99653 20.4562 9.02547 20.9666 10.2083C21.477 11.3912 21.7322 12.6551 21.7322 14C21.7322 15.8148 21.1853 17.4352 20.0916 18.8611C18.9978 20.287 17.6003 21.3403 15.8989 22.0208V23.7222H8.12111ZM10.0656 14H13.9544V6.46528C13.6304 6.38427 13.3063 6.3235 12.9822 6.28299C12.6581 6.24248 12.3341 6.22223 12.01 6.22223C11.6859 6.22223 11.3619 6.24248 11.0378 6.28299C10.7137 6.3235 10.3896 6.38427 10.0656 6.46528V14ZM4.23222 14H8.12111V7.26737C6.90583 7.96413 5.95387 8.91204 5.26521 10.1111C4.57655 11.3102 4.23222 12.6065 4.23222 14ZM15.8989 14H19.7878C19.7878 12.6065 19.4434 11.3102 18.7548 10.1111C18.0661 8.91204 17.1142 7.96413 15.8989 7.26737V14ZM10.0656 21.7778H13.9544V20.7083C15.1211 20.2384 16.1987 19.6186 17.1871 18.849C18.1755 18.0793 18.9128 17.1111 19.3989 15.9445H4.62111C5.10722 17.1111 5.84449 18.0793 6.83292 18.849C7.82134 19.6186 8.89889 20.2384 10.0656 20.7083V21.7778Z" fill="#1F2937"/>
</svg>
