<svg width="139" height="28" viewBox="0 0 139 28" fill="none" xmlns="http://www.w3.org/2000/svg">
<path d="M3.26 16.9167C2.72527 16.9167 2.26752 16.7263 1.88673 16.3455C1.50595 15.9647 1.31555 15.507 1.31555 14.9722V6.22224C1.31555 5.68752 1.50595 5.22976 1.88673 4.84897C2.26752 4.46819 2.72527 4.27779 3.26 4.27779H20.76C21.2947 4.27779 21.7525 4.46819 22.1333 4.84897C22.514 5.22976 22.7044 5.68752 22.7044 6.22224V14.9722C22.7044 15.507 22.514 15.9647 22.1333 16.3455C21.7525 16.7263 21.2947 16.9167 20.76 16.9167H3.26ZM3.26 6.22224V14.9722H20.76V6.22224H3.26ZM3.33291 20.3195L3.26 18.8611L20.7357 17.9375L20.8086 19.3958L3.33291 20.3195ZM3.26 22.7257V21.2674H20.76V22.7257H3.26ZM10.3086 13.5139C11.5077 13.5139 12.6622 13.3033 13.7721 12.882C14.8821 12.4607 15.8503 11.8125 16.6767 10.9375C16.7739 11.6181 17.1304 12.1366 17.7461 12.4931C18.3618 12.8496 19.0424 13.0278 19.7878 13.0278V8.16668C19.0424 8.16668 18.3618 8.34897 17.7461 8.71356C17.1304 9.07814 16.7739 9.60881 16.6767 10.3056C15.8179 9.46298 14.8416 8.81483 13.7478 8.36113C12.6541 7.90742 11.5077 7.68057 10.3086 7.68057C9.02851 7.68057 7.79703 7.90337 6.61416 8.34897C5.43129 8.79457 4.47527 9.544 3.74611 10.5972C4.47527 11.6505 5.43129 12.3999 6.61416 12.8455C7.79703 13.2911 9.02851 13.5139 10.3086 13.5139Z" fill="#1F2937"/>
</svg>
