<svg width="324" height="28" viewBox="0 0 324 28" fill="none" xmlns="http://www.w3.org/2000/svg">
<path d="M2.28778 21.7778V19.8333H7.87805C7.52157 18.456 6.84507 17.2691 5.84854 16.2726C4.85201 15.276 3.66509 14.5995 2.28778 14.243C2.61185 14.162 2.93187 14.1013 3.24785 14.0608C3.56382 14.0202 3.89194 14 4.23222 14C6.40352 14 8.24264 14.7535 9.74958 16.2604C11.2565 17.7674 12.01 19.6065 12.01 21.7778H2.28778ZM13.9544 21.7778C13.9544 21.0972 13.8815 20.4207 13.7357 19.7483C13.5899 19.0758 13.3792 18.4317 13.1037 17.816C13.7843 16.6655 14.712 15.7419 15.8867 15.0451C17.0615 14.3484 18.3619 14 19.7878 14C20.1281 14 20.4562 14.0202 20.7722 14.0608C21.0881 14.1013 21.4081 14.162 21.7322 14.243C20.3549 14.5995 19.172 15.276 18.1836 16.2726C17.1952 17.2691 16.5146 18.456 16.1419 19.8333H21.7322V21.7778H13.9544ZM12.01 15.9687C12.01 14.9155 12.2044 13.9271 12.5933 13.0035C12.9822 12.0799 13.5169 11.2656 14.1975 10.5608C14.8781 9.8559 15.6761 9.29282 16.5916 8.87152C17.5071 8.45022 18.4834 8.22337 19.5204 8.19097C18.613 8.75809 17.819 9.45485 17.1385 10.2812C16.4579 11.1076 15.9313 12.0312 15.5586 13.0521C14.8456 13.3924 14.1934 13.8096 13.602 14.3038C13.0106 14.798 12.4799 15.353 12.01 15.9687ZM10.2357 14.1458C10.0412 14 9.8468 13.8623 9.65236 13.7326C9.45792 13.603 9.25537 13.4734 9.04472 13.3437C9.04472 13.2465 9.05282 13.1452 9.06903 13.0399C9.08523 12.9346 9.09333 12.8333 9.09333 12.7361C9.09333 11.5046 8.89889 10.338 8.51 9.2361C8.12111 8.13425 7.57018 7.12962 6.85722 6.22222C7.92667 6.65972 8.85433 7.28761 9.64021 8.1059C10.4261 8.92418 11.0297 9.86805 11.451 10.9375C11.1593 11.4236 10.9081 11.9381 10.6975 12.4809C10.4869 13.0237 10.3329 13.5787 10.2357 14.1458Z" fill="#1F2937"/>
</svg>
