<svg width="48" height="48" viewBox="0 0 48 48" fill="none" xmlns="http://www.w3.org/2000/svg">
<g clip-path="url(#clip0_7_304)">
<path d="M45.0164 32.7026L2.69351 47.2071C1.51175 47.6121 0.381258 46.4816 0.78592 45.2999L15.4087 2.62064L37.8621 10.1312L45.0164 32.7026Z" fill="#FFE698"/>
<path d="M28.2403 19.634C27.5984 18.9924 27.5984 17.952 28.2403 17.3104L28.9109 16.6395C29.0218 16.5289 29.2016 16.5289 29.3126 16.6395L31.2345 18.5618C31.3454 18.6727 31.3454 18.8525 31.2345 18.9635L30.5639 19.634C29.9223 20.2756 28.8819 20.2756 28.2403 19.634Z" fill="#222223"/>
<path d="M15.4087 2.62064L13.4821 8.24379C14.0035 8.33169 14.5452 8.3229 15.0813 8.20791C22.0301 6.71999 29.1661 8.81911 34.17 13.8234C39.1743 18.8273 41.2734 25.9636 39.7855 32.9121C39.6709 33.4468 39.6613 33.9873 39.7489 34.508L45.0164 32.7026L37.8621 10.1309L15.4087 2.62064Z" fill="#FFCD00"/>
<path d="M18.7866 5.99856L19.415 3.96097L15.4087 2.62064L0.78592 45.2999C0.381258 46.4816 1.51175 47.6121 2.69351 47.2071L4.93032 46.4406L18.7866 5.99856Z" fill="#FFC861"/>
<path d="M39.1424 8.85099C32.2041 1.91314 22.5146 -0.593202 13.5864 1.32867C12.5566 1.55023 11.7432 2.34051 11.4777 3.36004C10.9511 5.38079 12.739 7.24406 14.7813 6.80681C21.9122 5.27971 29.6539 7.28032 35.1836 12.8097C40.713 18.3395 42.7136 26.0812 41.1865 33.2124C40.7493 35.2544 42.6126 37.0422 44.6337 36.5156C45.6528 36.2497 46.4431 35.4364 46.6647 34.407C48.5866 25.4788 46.0802 15.7892 39.1424 8.85099Z" fill="#D2996F"/>
<path d="M43.2135 31.1858C44.7403 24.0545 42.7396 16.3129 37.2102 10.7831C31.6808 5.25367 23.9388 3.25306 16.8079 4.78016C14.7714 5.21595 12.9884 3.36476 13.5007 1.35023C12.5119 1.59669 11.7359 2.3694 11.4777 3.36C10.9511 5.38075 12.739 7.24402 14.781 6.80677C21.9122 5.27967 29.6539 7.28028 35.1833 12.8097C40.7127 18.3395 42.7136 26.0812 41.1865 33.2124C40.7493 35.2544 42.6126 37.0422 44.6333 36.5156C45.6239 36.2574 46.3966 35.4814 46.6431 34.4926C44.6289 35.005 42.7774 33.2219 43.2135 31.1858Z" fill="#CD7331"/>
<path d="M26.5813 33.1102C24.5317 31.0605 21.2083 31.0605 19.1586 33.1102C17.1086 35.1599 17.1086 38.4832 19.1586 40.5329C19.4377 40.8123 19.7413 41.0518 20.061 41.2551L27.8085 38.6001C28.4743 36.747 28.0656 34.5948 26.5813 33.1102Z" fill="#FF7956"/>
<path d="M2.00208 41.7502C4.05285 43.2205 6.92431 43.0356 8.76671 41.1928C10.8168 39.1431 10.8168 35.8198 8.76671 33.7701C7.79442 32.7975 6.53503 32.2873 5.26135 32.2379L2.00208 41.7502Z" fill="#FF7956"/>
<path d="M2.00208 41.7502C3.25232 42.6467 4.80725 42.9276 6.24865 42.5925L9.13256 34.1759C9.01866 34.036 8.89708 33.9005 8.76671 33.7701C7.79442 32.7975 6.53503 32.2873 5.26135 32.2379L2.00208 41.7502Z" fill="#FF6243"/>
<path d="M18.6753 12.5153C17.0226 10.8626 14.6792 10.3231 12.5738 10.8941L9.19849 20.7466C9.37353 20.9788 9.56543 21.2025 9.7771 21.4138C12.2344 23.8711 16.218 23.8711 18.6753 21.4138C21.1325 18.9566 21.1325 14.9726 18.6753 12.5153Z" fill="#FF7956"/>
<path d="M16.9695 11.302C15.5943 10.6359 14.0277 10.4997 12.5742 10.8941L9.19849 20.7466C9.37353 20.9788 9.56543 21.2025 9.7771 21.4138C10.6718 22.3085 11.7689 22.8757 12.9206 23.1189L16.9695 11.302Z" fill="#FF6243"/>
<path d="M33.454 24.4955C33.2742 24.4955 33.0944 24.427 32.9571 24.2897L32.1899 23.5225C31.9152 23.2478 31.9152 22.8029 32.1899 22.5282C32.4645 22.2539 32.9098 22.2539 33.1841 22.5282L33.9514 23.2954C34.226 23.5701 34.226 24.015 33.9514 24.2897C33.814 24.427 33.6342 24.4955 33.454 24.4955Z" fill="#F46262"/>
<path d="M24.8488 15.8902C24.669 15.8902 24.4888 15.8218 24.3519 15.6844L23.5847 14.9172C23.31 14.6426 23.31 14.1976 23.5847 13.923C23.8593 13.6483 24.3043 13.6483 24.5789 13.923L25.3458 14.6902C25.6204 14.9645 25.6204 15.4098 25.3458 15.6844C25.2088 15.8218 25.0286 15.8902 24.8488 15.8902Z" fill="#F46262"/>
<path d="M29.8095 16.1426C29.6231 15.9562 29.3752 15.8536 29.1115 15.8536C28.8478 15.8536 28.5999 15.9562 28.4135 16.1426L27.743 16.8131C27.2999 17.2562 27.056 17.8455 27.056 18.472C27.056 19.0986 27.2999 19.6879 27.743 20.131C28.1861 20.5741 28.7753 20.8184 29.4019 20.8184C30.0285 20.8184 30.6177 20.5741 31.0608 20.131L31.7317 19.4604C32.1163 19.0756 32.1163 18.4497 31.7317 18.0644L29.8095 16.1426ZM30.067 19.1367C29.8893 19.3143 29.6531 19.4121 29.4019 19.4121C29.1511 19.4121 28.9149 19.3143 28.7372 19.1367C28.5596 18.9595 28.4619 18.7233 28.4619 18.472C28.4619 18.2208 28.5596 17.985 28.7372 17.8074L29.1115 17.4331L30.4412 18.7628L30.067 19.1367Z" fill="black"/>
<path d="M35.0177 22.456L35.7849 21.6888C36.0596 21.4142 36.0596 20.9692 35.7849 20.6946C35.5103 20.4199 35.0653 20.4199 34.7907 20.6946L34.0235 21.4618C33.7492 21.7361 33.7492 22.1814 34.0235 22.4557C34.1608 22.593 34.341 22.6618 34.5208 22.6618C34.7006 22.6618 34.8808 22.593 35.0177 22.456Z" fill="black"/>
<path d="M27.1798 12.0894C26.9051 11.8147 26.4602 11.8147 26.1855 12.089L25.4183 12.8562C25.144 13.1309 25.144 13.5762 25.4183 13.8505C25.5556 13.9878 25.7354 14.0563 25.9156 14.0563C26.0954 14.0563 26.2752 13.9878 26.4126 13.8505L27.1798 13.0833C27.4541 12.809 27.4544 12.3637 27.1798 12.0894Z" fill="black"/>
<path d="M39.6393 8.35405C34.2523 2.9671 27.0889 6.10352e-05 19.4695 6.10352e-05C17.4444 6.10352e-05 15.4152 0.215759 13.4388 0.641295C12.1453 0.919615 11.1335 1.89337 10.7973 3.18279C10.5215 4.24114 10.7457 5.34307 11.4118 6.20549C11.8388 6.75811 12.402 7.1602 13.0345 7.38066L11.9087 10.6663C11.9087 10.667 11.9084 10.6678 11.908 10.6685L10.7863 13.9424C10.6607 14.3097 10.8563 14.7096 11.2236 14.8352C11.299 14.8612 11.3759 14.8733 11.4517 14.8733C11.7436 14.8733 12.0164 14.6899 12.1168 14.398L13.1136 11.4888C14.941 11.12 16.8526 11.6869 18.1783 13.0126C19.2341 14.0684 19.8152 15.4717 19.8152 16.9648C19.8152 18.4578 19.2341 19.8611 18.1783 20.9169C17.1225 21.9723 15.7192 22.5539 14.2261 22.5539C12.7331 22.5539 11.3298 21.9723 10.274 20.9169C10.1766 20.8191 10.0814 20.7158 9.98907 20.6082L11.299 16.7846C11.425 16.4173 11.2291 16.0174 10.8618 15.8914C10.4944 15.7654 10.0945 15.9613 9.96893 16.3286L8.53375 20.5166C8.53375 20.5174 8.53339 20.5181 8.53302 20.5188L4.59882 32.0028C4.59882 32.0028 4.59882 32.0028 4.59846 32.0028L1.33589 41.5261C1.33516 41.5279 1.33479 41.5294 1.33406 41.5309L0.120804 45.0721C-0.154219 45.8749 0.0475623 46.7457 0.647781 47.3456C1.07039 47.7682 1.62739 47.993 2.20051 47.993C2.44075 47.993 2.68428 47.9535 2.92121 47.8722L31.0304 38.239C31.3977 38.113 31.5937 37.7135 31.4677 37.3462C31.3417 36.9789 30.9418 36.783 30.5749 36.9089L28.7771 37.5249C28.9855 35.7393 28.3776 33.9126 27.0783 32.6133C24.758 30.293 20.982 30.293 18.6617 32.6133C17.5374 33.7372 16.9181 35.2321 16.9181 36.8218C16.9181 38.3979 17.5275 39.8804 18.6338 41.001L2.46565 46.5421C2.17012 46.6428 1.8625 46.5718 1.64168 46.3513C1.42122 46.1308 1.34981 45.8229 1.45088 45.5277L2.38472 42.802C3.22993 43.2297 4.14509 43.4407 5.05695 43.4407C6.58698 43.4407 8.10639 42.8474 9.26361 41.6902C11.5843 39.3695 11.5843 35.5935 9.26361 33.2728C8.42169 32.4313 7.35968 31.8702 6.20759 31.6439L9.47784 22.0994C10.8145 23.3364 12.52 23.9564 14.2261 23.9564C16.0173 23.9564 17.8088 23.2749 19.1725 21.9112C20.4938 20.5899 21.2215 18.8332 21.2215 16.9648C21.2215 15.096 20.4935 13.3393 19.1725 12.0183C17.7037 10.5495 15.6598 9.82475 13.6241 9.99833L14.4587 7.56157C14.6158 7.54912 14.7729 7.52751 14.9282 7.49419C16.4161 7.17558 17.9435 7.01409 19.4681 7.01409C25.2234 7.01409 30.6283 9.24907 34.6863 13.307C39.866 18.4871 42.0391 25.8732 40.4992 33.0652C40.4658 33.2201 40.4446 33.3754 40.4325 33.5306L33.25 35.9919C32.8827 36.1179 32.6868 36.5178 32.8128 36.8851C32.9127 37.1766 33.1856 37.3601 33.4778 37.3601C33.5532 37.3601 33.6301 37.348 33.7056 37.322L40.6141 34.9545C40.7449 35.3302 40.9401 35.6854 41.1975 36.0037C41.8699 36.835 42.8601 37.3118 43.9152 37.3118C44.2144 37.3118 44.5157 37.2729 44.8109 37.196C46.1 36.8599 47.0737 35.848 47.352 34.5549C49.4025 25.0287 46.5193 15.234 39.6393 8.35405ZM19.6556 40.036C18.7972 39.1776 18.3244 38.0358 18.3244 36.8218C18.3244 35.6074 18.7972 34.4659 19.6556 33.6075C21.428 31.8351 24.3116 31.8351 26.084 33.6075C27.2449 34.7684 27.684 36.4808 27.2464 38.0493L20.1683 40.4751C19.9862 40.3407 19.8138 40.1942 19.6556 40.036ZM8.26972 34.2675C10.0422 36.0395 10.0422 38.9235 8.26972 40.6959C6.8122 42.1534 4.60395 42.4383 2.84687 41.4543L5.74653 32.9905C6.69904 33.1359 7.58087 33.5786 8.26972 34.2675ZM45.9777 34.259C45.8114 35.0299 45.2288 35.6338 44.4561 35.8352C44.2766 35.8821 44.0946 35.9059 43.9152 35.9059C43.2867 35.9059 42.695 35.6191 42.291 35.1196C42.0131 34.7761 41.8563 34.3737 41.8292 33.9496C41.8292 33.9489 41.8292 33.9485 41.8289 33.9478C41.8168 33.7548 41.8318 33.5577 41.8743 33.3596C43.5145 25.6992 41.199 17.8312 35.6806 12.3128C31.3567 7.9893 25.5992 5.60784 19.4684 5.60784C17.845 5.60784 16.2183 5.77996 14.6337 6.11943C14.4828 6.15166 14.3301 6.16814 14.18 6.16814C14.1664 6.16814 14.1529 6.16741 14.139 6.16704C14.0562 6.14507 13.9723 6.13884 13.891 6.14727C13.3549 6.07183 12.8675 5.78985 12.5243 5.34563C12.1263 4.83037 11.993 4.1712 12.1581 3.53729C12.3596 2.76495 12.9634 2.18194 13.7343 2.01568C15.6141 1.61139 17.5436 1.40594 19.4695 1.40594C26.7135 1.40594 33.5236 4.22649 38.645 9.34831C45.1859 15.8892 47.927 25.2016 45.9777 34.259Z" fill="black"/>
<path d="M12.2673 33.4197C11.941 33.4197 11.6484 33.1912 11.5799 32.859L10.7406 28.8029C10.6618 28.4227 10.9065 28.0507 11.2866 27.9719C11.6671 27.8936 12.0388 28.1378 12.1175 28.5179L12.9569 32.5741C13.0352 32.9546 12.791 33.3263 12.4109 33.405C12.3625 33.4149 12.3145 33.4197 12.2673 33.4197Z" fill="#7EC66A"/>
<path d="M34.438 31.9358C34.3926 31.9358 34.3468 31.9311 34.3007 31.9219L29.7066 31.0111C29.3257 30.9357 29.0782 30.5658 29.1536 30.185C29.229 29.8041 29.5989 29.5566 29.9798 29.6324L34.5739 30.5431C34.9547 30.6186 35.2023 30.9884 35.1269 31.3693C35.0606 31.704 34.7669 31.9358 34.438 31.9358Z" fill="#7EC66A"/>
<path d="M21.7027 25.9556C21.5932 25.9556 21.4819 25.9299 21.3779 25.8754C21.0337 25.6956 20.9004 25.2711 21.0802 24.9269L22.7999 21.6332C22.9797 21.2893 23.4041 21.1557 23.7484 21.3355C24.0926 21.5153 24.2259 21.9401 24.0461 22.284L22.3264 25.5777C22.2011 25.8179 21.9561 25.9556 21.7027 25.9556Z" fill="#7EC66A"/>
</g>
<defs>
<clipPath id="clip0_7_304">
<rect width="48" height="48" fill="white"/>
</clipPath>
</defs>
</svg>
